<svg id="lang" xmlns="http://www.w3.org/2000/svg" width="55" height="55" viewBox="0 0 55 55">
  <path id="Path_1" data-name="Path 1" d="M0,0H55V55H0Z" fill="none"/>
  <path id="Path_2" data-name="Path 2" d="M27.475,2A25.5,25.5,0,1,0,45.522,9.46,25.5,25.5,0,0,0,27.475,2ZM45.146,17.3H37.624A39.9,39.9,0,0,0,34.1,8.222,20.476,20.476,0,0,1,45.146,17.3ZM27.5,7.2a35.922,35.922,0,0,1,4.87,10.1H22.63A35.922,35.922,0,0,1,27.5,7.2ZM7.763,32.6a19.946,19.946,0,0,1,0-10.2h8.619a42.111,42.111,0,0,0-.357,5.1,42.112,42.112,0,0,0,.357,5.1Zm2.091,5.1h7.522A39.905,39.905,0,0,0,20.9,46.778,20.367,20.367,0,0,1,9.854,37.7Zm7.522-20.4H9.854A20.367,20.367,0,0,1,20.9,8.222,39.905,39.905,0,0,0,17.377,17.3ZM27.5,47.8a35.922,35.922,0,0,1-4.87-10.1H32.37A35.922,35.922,0,0,1,27.5,47.8Zm5.967-15.2H21.533a37.519,37.519,0,0,1-.408-5.1,37.193,37.193,0,0,1,.408-5.1H33.467a37.192,37.192,0,0,1,.408,5.1,37.517,37.517,0,0,1-.408,5.1ZM34.1,46.778A39.9,39.9,0,0,0,37.624,37.7h7.522A20.477,20.477,0,0,1,34.1,46.778ZM38.618,32.6a42.113,42.113,0,0,0,.357-5.1,42.114,42.114,0,0,0-.357-5.1h8.619a19.946,19.946,0,0,1,0,10.2Z" transform="translate(0 0)" fill="#fff"/>
</svg>
